<svg width="76" height="73" viewBox="0 0 76 73" fill="none" xmlns="http://www.w3.org/2000/svg">
<path d="M15.4005 0.479822C13.2868 1.21014 10.5691 3.55483 9.92206 5.24608C9.14559 7.36015 9.6201 10.4352 11.0005 12.2033C12.424 14.0099 15.875 15.7011 18.1613 15.7011C20.4907 15.7011 24.0711 13.9714 25.4083 12.1649C27.0476 9.93547 27.2201 6.51453 25.8397 4.16983C23.8985 0.979511 19.1103 -0.711742 15.4005 0.479822ZM21.9142 4.70796C25.3652 8.05203 22.3025 13.2027 17.3417 12.4724C15.0123 12.1649 12.9848 10.0508 12.9848 7.89828C12.9848 3.51639 18.6358 1.51764 21.9142 4.70796Z" fill="#7D4E57"/>
<path d="M52.326 0.518217C48.4005 2.05572 46.6318 4.2851 46.6318 7.82136C46.6318 14.5864 55.0867 18.0842 60.7377 13.6639C64.8358 10.4351 64.8358 5.2076 60.7377 1.97885C58.2358 0.018528 55.0436 -0.519598 52.326 0.518217ZM57.4593 3.59323C59.9612 4.78479 61.126 7.74449 59.875 9.93543C59.1416 11.2423 56.6828 12.6261 55.0867 12.6261C53.6201 12.6261 51.6789 11.6267 50.7299 10.4351C49.0044 8.20574 49.9103 5.05385 52.7142 3.70854C54.4828 2.86291 55.7769 2.82447 57.4593 3.59323Z" fill="#7D4E57"/>
<path d="M7.89459 17.5845C5.60832 18.1226 3.19263 19.7755 1.89851 21.7358L0.690669 23.5808L0.561257 34.6508C0.431845 45.2596 0.431845 45.7977 1.33773 47.3736C2.37302 49.334 4.57302 50.4871 6.55734 50.1412L7.80832 49.949V59.7121V69.5137L9.0593 70.7437C10.0946 71.7815 10.6122 71.9737 12.8985 72.1275C14.7103 72.2428 15.9181 72.1275 16.824 71.7046C18.0318 71.1665 18.2907 71.1665 19.4985 71.7046C20.4044 72.1275 21.6122 72.2428 23.424 72.1275C25.7103 71.9737 26.2279 71.7815 27.2632 70.7437L28.5142 69.5137V63.8249C28.5142 60.6731 28.6436 58.0209 28.773 57.9055C28.9024 57.7902 29.3769 57.7518 29.8515 57.8671C30.6279 58.0593 30.6711 58.4437 30.6711 63.7865V69.5137L31.922 70.7437L33.173 72.0121H37.573H41.973L43.224 70.7437L44.475 69.5137V63.7865C44.475 58.4437 44.5181 58.0593 45.2946 57.8671C45.7691 57.7518 46.2436 57.7902 46.373 57.9055C46.5024 58.0209 46.6319 60.5193 46.6319 63.4406C46.6319 69.5137 46.9769 70.5515 49.3926 71.5893C51.2044 72.3581 51.8515 72.3581 53.7926 71.6278C55.173 71.1281 55.475 71.1281 56.5534 71.6278C58.1495 72.3581 59.2711 72.3581 60.9103 71.6278C63.5417 70.3978 63.8868 69.3215 63.8868 61.7877V54.9843L66.9064 54.8305C71.3064 54.6384 72.3417 53.5237 71.4789 49.7952C71.1338 48.4883 71.1769 48.373 72.126 48.373C74.1103 48.3346 75.9652 46.3358 75.9652 44.2218C75.9652 43.0686 69.1926 24.0036 67.9848 21.6973C67.0358 19.8908 64.7495 18.1611 62.722 17.6614C60.5652 17.1233 49.9103 17.1233 47.7103 17.6614C45.0789 18.3148 43.526 19.4295 43.6985 20.6211C43.9142 22.2355 45.0789 22.543 46.7181 21.4667C48.0985 20.5442 48.3573 20.5058 55.4319 20.5058H62.6789L63.9299 21.8126C64.8358 22.7736 66.0436 25.5795 68.373 31.9986C72.8162 44.1833 72.8593 44.3755 71.9966 45.1443C70.573 46.4127 69.8397 45.298 66.9064 37.5336C64.2319 30.4995 64.0593 30.1152 62.9377 29.9999C60.6083 29.7692 60.7377 30.6149 64.577 40.8777C66.5613 46.1436 68.1573 50.7946 68.2005 51.179C68.2005 51.794 67.5534 51.8324 59.0554 51.7555L49.8671 51.6402L49.6515 45.7977C49.4358 39.4555 49.2201 38.8789 46.4593 37.0724C45.3809 36.3421 44.6907 36.2652 37.573 36.2652C28.9887 36.2652 28.5573 36.3805 26.4867 39.148C25.4946 40.4164 25.4946 40.5318 25.4946 54.2924C25.4946 64.5937 25.3652 68.3221 24.9769 68.6681C24.2867 69.2831 21.0946 69.2831 20.4044 68.6681C20.0162 68.3221 19.8867 65.3624 19.8867 57.7134C19.8867 47.758 19.8436 47.2199 19.0671 46.8355C18.3769 46.528 17.4279 46.5665 16.7809 46.9893C16.7377 46.9893 16.5652 51.9477 16.4358 57.9824L16.2201 68.9371H13.8475H11.475L11.3456 49.1802C11.3024 34.9199 11.1299 29.2695 10.7417 28.8852C10.4828 28.5777 9.74949 28.3855 9.14557 28.4623L8.024 28.5777L7.80832 37.5336C7.63577 44.9136 7.46322 46.528 6.94557 46.8355C5.99655 47.3736 5.43577 47.2968 4.6593 46.528C4.01224 45.913 3.92596 44.5677 3.92596 35.458C3.92596 25.4642 3.9691 25.0414 4.91812 23.3886C6.55734 20.5058 7.42008 20.3136 17.9456 20.3136C25.2789 20.3136 27.3926 20.4289 28.9887 20.9286C31.4907 21.7358 32.4828 21.4667 32.3103 20.0445C32.224 19.3142 31.7064 18.8145 30.4554 18.2379C28.8593 17.5076 27.9534 17.4308 19.024 17.3539C13.675 17.3154 8.67106 17.4308 7.89459 17.5845ZM45.2083 40.0705L46.4162 40.993L46.5456 47.3352C46.7181 54.3693 46.5024 54.9074 43.9142 54.9074C41.2828 54.9074 41.2397 55.0227 41.024 62.2874L40.8083 68.9371H37.573H34.3377L34.122 62.2874C33.9064 55.0227 33.8632 54.9074 31.2318 54.9074C28.6436 54.9074 28.4279 54.3693 28.6005 47.3352L28.7299 40.993L29.9377 40.0705C31.1024 39.1864 31.4044 39.148 37.573 39.148C43.7417 39.148 44.0436 39.1864 45.2083 40.0705ZM53.5338 61.4034C53.5338 66.8231 53.4044 68.0146 52.8436 68.5143C51.9809 69.2831 51.4201 69.2831 50.4279 68.4759C49.7377 67.9378 49.6515 67.169 49.6515 61.3649V54.9074H51.5926H53.5338V61.4034ZM60.3495 61.6724C60.2201 67.6687 60.1338 68.5143 59.4868 68.8987C58.926 69.2062 58.4946 69.2062 57.9769 68.8987C57.2868 68.5143 57.2005 67.6687 57.0711 61.6724L56.9848 54.9074H58.7103H60.4358L60.3495 61.6724Z" fill="#7D4E57"/>
<path d="M35.2869 22.3892C33.2163 23.0426 32.2242 23.8498 31.3614 25.5027C29.5928 28.8083 31.3183 32.652 35.1575 33.9589C39.6438 35.4964 44.4752 32.6136 44.4752 28.4623C44.4752 24.042 39.7732 20.9286 35.2869 22.3892ZM39.2556 25.5027C42.4046 26.9248 41.1105 31.4605 37.5732 31.4605C33.9065 31.4605 32.8281 26.9633 36.0634 25.3873C37.2281 24.8108 37.832 24.8108 39.2556 25.5027Z" fill="#7D4E57"/>
</svg>
