<svg width="81" height="81" viewBox="0 0 81 81" fill="none" xmlns="http://www.w3.org/2000/svg">
<path d="M36.9872 10.5857C46.5872 20.1857 46.5872 20.2657 48.0272 18.5057C50.5072 15.4657 49.7072 13.7057 43.1472 7.14574C39.7872 3.78574 36.6672 0.985737 36.3472 0.985737C34.9872 0.985737 36.0272 2.58574 40.2672 7.06574C45.5472 12.5857 47.3872 15.2257 46.6672 15.9457C46.4272 16.2657 42.6672 12.9857 38.4272 8.74574C33.7072 4.02574 30.0272 0.985737 29.0672 0.985737C27.8672 0.985737 29.9472 3.54574 36.9872 10.5857Z" fill="#7D4E57"/>
<path d="M17.1471 14.4258L7.78711 23.7858L15.6271 31.6257L23.3871 39.3857L25.5471 37.2257L27.7071 35.1457L39.5471 46.4257C46.0271 52.5857 55.7071 62.0257 60.9871 67.3057C69.7071 76.1057 70.8271 76.9857 73.4671 76.9857C78.4271 76.9857 81.5471 71.7057 79.3071 66.9857C78.6671 65.6257 69.1471 55.5457 58.1871 44.5858L38.1871 24.6657L40.3471 22.4258L42.5071 20.1857L34.9871 12.5857C30.8271 8.42575 27.2271 4.98575 26.9871 4.98575C26.7471 4.98575 22.3471 9.22575 17.1471 14.4258ZM33.0671 13.8657C36.1071 16.9857 38.5071 19.9458 38.4271 20.4258C38.4271 20.9857 38.1071 22.5858 37.7871 24.0257C37.1471 26.6657 37.4671 26.9857 58.5871 48.1857C78.1071 67.7857 79.9471 69.7857 78.9871 71.1457C76.9871 73.7057 75.5471 74.5857 73.1471 74.5857C71.1471 74.5857 67.7071 71.5457 50.1871 54.1857C38.8271 42.9857 29.3071 33.7857 28.9871 33.7857C28.5871 33.7857 27.0671 34.1857 25.6271 34.7458C22.9871 35.7057 22.9071 35.7057 17.3871 30.1857C14.2671 27.1457 11.7871 24.2658 11.7871 23.7858C11.7871 22.9857 26.1871 8.18575 27.0671 8.18575C27.3871 8.18575 30.0271 10.7458 33.0671 13.8657Z" fill="#7D4E57"/>
<path d="M1.94717 26.5858C0.667166 28.6658 0.667166 29.1458 1.70717 31.1458C3.38717 34.4258 16.2672 46.5858 18.1072 46.5858C18.9072 46.5858 20.3472 45.9458 21.3072 45.1458C23.0672 43.7858 22.9872 43.7858 13.2272 33.9458L3.30717 24.1858L1.94717 26.5858ZM11.7072 35.7058C21.4672 45.5458 19.8672 46.5858 9.86717 36.9058C3.14717 30.4258 1.54717 28.1858 3.62717 28.1858C3.94717 28.1858 7.54717 31.5458 11.7072 35.7058Z" fill="#7D4E57"/>
<path d="M10.7473 68.7458C10.4273 68.9858 10.1873 70.4258 10.1873 71.9458V74.5858H27.3873H44.5873L44.1073 72.3458C43.8673 71.1458 43.5473 69.7058 43.3073 69.2258C43.1473 68.4258 39.1473 68.1858 27.1473 68.1858C18.4273 68.1858 10.9873 68.4258 10.7473 68.7458ZM41.0673 70.8258C41.3873 71.1458 41.4673 71.5458 41.3073 71.7058C40.9873 72.0258 25.8673 72.3458 16.0273 72.2658C12.4273 72.1858 11.3073 70.9058 14.4273 70.3458C17.3073 69.7858 40.5073 70.2658 41.0673 70.8258Z" fill="#7D4E57"/>
<path d="M5.30707 77.5458C2.82707 77.9458 1.38707 80.9858 3.70707 80.9858C4.42707 80.9858 5.38707 80.6658 5.86707 80.1858C6.98707 79.0658 46.9871 79.0658 48.0271 80.1058C49.4671 81.5458 51.9471 81.1458 51.6271 79.6258C51.4671 78.8258 50.2671 78.0258 48.5871 77.7058C45.7071 77.0658 9.14707 76.9858 5.30707 77.5458Z" fill="#7D4E57"/>
</svg>
