<svg width="81" height="80" viewBox="0 0 81 80" fill="none" xmlns="http://www.w3.org/2000/svg">
<g clip-path="url(#clip0_4_370)">
<path d="M76.5984 53.1353C76.6074 53.0199 76.6074 52.904 76.5984 52.7886C76.5984 40.7304 76.5984 28.664 76.5984 16.5893C76.6578 14.0267 75.9418 11.5036 74.5397 9.33459C73.522 7.66254 72.0519 6.29537 70.2901 5.38267C68.5283 4.46996 66.5428 4.04688 64.5508 4.15972C59.3657 4.28352 54.7017 8.50512 53.9392 14.0638C53.6971 16.4537 53.608 18.8559 53.6723 21.2566C53.6723 31.6393 53.6723 42.0262 53.6723 52.4172C53.6723 52.6277 53.6723 52.8258 53.6723 53.0981C60.0266 44.952 70.4729 45.3482 76.5476 53.0981M50.3681 22.0613H14.4793C11.6834 22.0613 8.87485 22.0613 6.07898 22.0613C4.96063 22.0613 4.43958 22.6555 4.38875 23.8564C4.38875 24.1907 4.38875 24.5249 4.38875 24.8592V58.8301C4.38875 63.8647 4.38875 68.9075 4.38875 73.9585C4.38875 75.1965 4.94792 75.7908 6.09169 75.8032H65.237C72.5571 75.8032 78.098 68.957 76.3188 60.229C75.2132 54.819 71.6167 51.563 66.3173 50.8326C63.7447 50.5399 61.149 51.1456 58.9919 52.542C56.8347 53.9384 55.256 56.0349 54.5365 58.4587C54.0986 60.0392 53.8093 61.6553 53.6723 63.2869C53.5198 64.5249 52.8081 65.2182 51.766 65.0573C50.7239 64.8963 50.3681 64.2154 50.3681 63.0022V22.0613ZM1.021 22.8412C1.09725 22.6308 1.18621 22.4327 1.24975 22.2346C1.49407 21.1832 2.09708 20.2434 2.96033 19.5689C3.82358 18.8943 4.89608 18.5248 6.00273 18.5206H50.3681C50.3681 18.1244 50.3681 17.7407 50.3681 17.3692C50.0631 9.82979 55.0194 2.66173 61.9837 0.953279C67.9694 -0.507569 72.8494 1.77036 76.7509 6.78429C78.9815 9.78018 80.1341 13.4097 80.0297 17.1093C80.0297 32.4729 80.0297 47.849 80.0297 63.225C80.0297 71.3092 74.1203 78.5639 66.7494 79.3191C63.7252 79.5214 60.6925 79.5751 57.6628 79.48H6.42211C3.67707 79.48 2.02497 78.242 1.16079 75.3204C1.12263 75.2528 1.07564 75.1904 1.021 75.1346V22.8412Z" fill="#7D4E57"/>
<path d="M61.8439 79.9997H59.7597C59.0353 79.9997 58.2983 79.9997 57.5993 79.9997H6.42216C3.42295 79.975 1.59293 78.5389 0.652502 75.4439L0.5 75.3077V75.1096V22.7419L0.601668 22.4819C0.65588 22.3526 0.702552 22.2203 0.741461 22.0858C1.00886 20.9184 1.67479 19.8738 2.63043 19.1227C3.58607 18.3717 4.77494 17.9585 6.00278 17.9508H49.8471C49.8471 17.7404 49.8471 17.5299 49.8471 17.3195C49.5167 9.47049 54.689 2.21577 61.8566 0.457805C67.855 -1.00304 72.9384 1.02729 77.1195 6.4869C79.4361 9.56197 80.6466 13.2956 80.5635 17.109C80.5635 28.3996 80.5635 39.6985 80.5635 51.0056V63.2247C80.5635 71.6184 74.3999 79.0589 66.8129 79.8017C65.1612 79.9505 63.5027 80.0166 61.8439 79.9997ZM57.6882 78.9474H59.7724C62.0615 79.0072 64.3522 78.9494 66.635 78.7741C73.6882 78.0808 79.4325 71.0985 79.4325 63.2124V51.0056C79.4325 39.6985 79.4325 28.3996 79.4325 17.109C79.5275 13.5198 78.4065 10 76.2426 7.09352C72.3793 2.00531 67.6136 0.0987833 62.1108 1.44821C55.5278 3.05762 50.5969 10.0276 50.8892 17.3318C50.8892 17.5918 50.8892 17.8518 50.8892 18.1118V19.0155H6.00278C5.00964 19.025 4.04942 19.3637 3.28022 19.9758C2.51102 20.5878 1.97868 21.4368 1.77085 22.3829C1.77085 22.5315 1.65647 22.6924 1.59293 22.841V22.9276V74.9239C1.64102 74.9973 1.67944 75.0764 1.70731 75.1591C2.50794 77.8085 3.93129 78.9474 6.46029 78.9474H57.6882ZM65.2371 76.3229H6.0282C5.02423 76.3229 3.81692 75.9019 3.81692 73.9706C3.81692 68.9361 3.81692 63.8933 3.81692 58.8422V24.8837C3.81692 24.4751 3.81692 24.1656 3.81692 23.8561C3.88046 21.9744 5.08777 21.5782 6.01549 21.5658H50.8892V63.0019C50.8892 64.4132 51.6136 64.5123 51.855 64.5494C51.9855 64.5745 52.1199 64.5721 52.2493 64.5422C52.3787 64.5123 52.4999 64.4556 52.6048 64.3761C52.7825 64.2192 52.9251 64.0283 53.0235 63.8153C53.1219 63.6022 53.1741 63.3717 53.1767 63.1381C53.1767 62.8038 53.2657 62.4572 53.3165 62.1105C53.4268 60.7938 53.6738 59.4914 54.0536 58.2232C54.8269 55.6921 56.4893 53.5065 58.7498 52.049C61.0104 50.5914 63.7252 49.9548 66.419 50.2504C72.0107 50.9561 75.7216 54.4349 76.8527 60.0554C77.3662 62.1419 77.3954 64.3138 76.9381 66.4126C76.4808 68.5115 75.5485 70.4845 74.2093 72.1879C73.1287 73.4894 71.7609 74.537 70.2076 75.2529C68.6543 75.9687 66.9554 76.3345 65.2371 76.3229ZM42.438 75.2953H65.2371C66.7858 75.306 68.3172 74.9779 69.7183 74.3351C71.1194 73.6923 72.3545 72.7512 73.3324 71.5813C74.5663 70.0041 75.4271 68.1808 75.8533 66.2418C76.2795 64.3028 76.2606 62.296 75.7979 60.3649C74.7558 55.2148 71.3626 52.0208 66.2538 51.377C63.8036 51.1138 61.3365 51.6989 59.2848 53.0299C57.233 54.3608 55.7276 56.3527 55.0322 58.6565C54.6714 59.8684 54.4373 61.1128 54.3332 62.3705C54.3332 62.7295 54.2442 63.0762 54.1934 63.4228C54.1718 63.7834 54.0737 64.1357 53.9053 64.4575C53.7369 64.7792 53.5018 65.0635 53.2149 65.2922C52.9978 65.4472 52.7508 65.5578 52.4887 65.6174C52.2266 65.6769 51.9549 65.6843 51.6898 65.6389C51.0036 65.5398 49.8471 65.0694 49.8471 63.0762V22.581H12.6875C10.4635 22.581 8.25218 22.581 6.0282 22.581C5.34194 22.581 4.90985 22.8038 4.85901 23.8933V58.8298C4.85901 63.8644 4.85901 68.9072 4.85901 73.9583C4.85901 75.0601 5.2911 75.2829 6.0282 75.2829H42.438V75.2953ZM53.3292 54.472L53.1767 52.9369C53.1767 52.7512 53.1767 52.5903 53.1767 52.4293V45.1498C53.1767 37.2018 53.1767 29.2415 53.1767 21.2811V20.1545C53.1241 18.0877 53.2132 16.0197 53.4436 13.9645C54.2061 8.24487 58.9591 3.77566 64.5381 3.71376C66.6307 3.59067 68.7177 4.03018 70.5712 4.98429C72.4247 5.9384 73.9734 7.3704 75.048 9.12385C76.4988 11.376 77.241 13.9927 77.1831 16.6509C77.1831 27.5124 77.1831 38.3738 77.1831 49.2353V52.8502C77.1963 52.9447 77.1963 53.0405 77.1831 53.135L76.9416 54.373L76.2172 53.4569C74.9566 51.729 73.3023 50.309 71.3841 49.3081C69.4659 48.3072 67.3359 47.7526 65.1608 47.6878C62.9944 47.7429 60.8716 48.2939 58.9642 49.2961C57.0567 50.2983 55.4181 51.7236 54.1807 53.4569L53.3292 54.472ZM64.9321 4.66703H64.5635C62.0023 4.83439 59.5841 5.87764 57.7356 7.6127C55.8871 9.34775 54.7271 11.6631 54.4603 14.1502C54.2353 16.1436 54.1504 18.1497 54.2061 20.1545V21.2811C54.2061 29.2415 54.2061 37.2018 54.2061 45.1498V51.7732C55.5399 50.2008 57.2075 48.9285 59.0942 48.0438C60.9809 47.159 63.0418 46.6828 65.1354 46.6478C67.2363 46.6955 69.3031 47.1758 71.1999 48.057C73.0967 48.9382 74.7806 50.2005 76.141 51.7608V49.1734C76.141 38.3202 76.141 27.4587 76.141 16.589C76.203 14.1287 75.532 11.7035 74.2093 9.60668C73.2639 8.04484 71.9026 6.76114 70.2694 5.89155C68.6362 5.02195 66.792 4.59884 64.9321 4.66703Z" fill="#7D4E57"/>
<path d="M27.3531 33.5624C24.1378 37.0659 20.9988 40.5076 17.8217 43.974C17.6194 44.2572 17.5128 44.5947 17.5167 44.9397C17.5167 46.5862 17.5167 48.2451 17.5167 49.8917V63.3364C17.5167 64.203 18.0378 64.983 18.724 65.0201C19.9186 65.0201 21.1132 65.0201 22.4095 65.0201V64.0421C22.4095 61.4918 22.4095 58.9415 22.4095 56.3912C22.4095 54.9551 23.0576 54.2866 24.3666 54.2742H30.149C31.7629 54.2742 32.3602 54.9675 32.3475 56.7502C32.3475 59.3253 32.3475 61.9004 32.3475 64.4754C32.3604 64.6625 32.3859 64.8486 32.4238 65.0325C33.3633 64.9765 34.3055 64.9765 35.2451 65.0325C36.6811 65.2058 37.2657 64.1411 37.253 62.8041C37.253 57.4311 37.1768 52.0458 37.253 46.71C37.3138 45.9643 37.209 45.2145 36.9459 44.5117C36.6827 43.8089 36.2673 43.1695 35.728 42.637C32.8813 39.7153 30.1871 36.645 27.3658 33.5748M14.1108 47.9233L12.2808 49.9783C11.4166 50.9192 10.4254 50.9935 9.7391 50.2012C9.56461 50.0106 9.43094 49.7879 9.34593 49.5463C9.26091 49.3047 9.22627 49.049 9.24402 48.7942C9.26178 48.5393 9.33157 48.2905 9.44932 48.0623C9.56707 47.8341 9.7304 47.6311 9.92973 47.4652C15.2842 41.6053 20.6472 35.7578 26.0187 29.9226C26.9464 28.9075 27.8741 28.957 28.8273 29.9226L44.2808 46.8833L44.9289 47.6014C45.2603 47.9623 45.4435 48.4295 45.4435 48.9137C45.4435 49.3979 45.2603 49.8651 44.9289 50.226C44.7784 50.3987 44.5896 50.5359 44.3767 50.6273C44.1639 50.7187 43.9325 50.7618 43.7 50.7535C43.4676 50.7451 43.2401 50.6855 43.0347 50.5791C42.8293 50.4728 42.6514 50.3224 42.5143 50.1393C41.8789 49.4831 41.2435 48.8022 40.6335 48.1461H40.4683V49.0127C40.4683 53.7295 40.4683 58.4339 40.4683 63.1384C40.4683 66.4438 38.2697 68.7837 35.2196 68.7218H31.2546C29.5135 68.7218 28.9671 68.1151 28.9671 66.2458V58.0006H25.701V66.741C25.701 67.979 25.0528 68.6846 23.9472 68.697C22.2951 68.697 20.6557 68.697 19.0163 68.697C16.2204 68.6227 14.1362 66.221 14.149 63.0888V48.8889C14.149 48.6413 14.149 48.4061 14.149 47.9233" fill="#7D4E57"/>
<path d="M35.3593 69.2418H35.2577C33.9233 69.2418 32.5889 69.2418 31.2545 69.2418C30.8812 69.2824 30.5032 69.2473 30.1445 69.1387C29.7858 69.03 29.4541 68.8501 29.1703 68.6104C28.8861 68.2757 28.6761 67.8873 28.5536 67.4697C28.4311 67.0521 28.3988 66.6143 28.4586 66.1839V58.5082H26.2219V62.9279C26.2219 64.1659 26.2219 65.4658 26.2219 66.741C26.2619 67.0534 26.2327 67.3706 26.1362 67.6711C26.0398 67.9716 25.8783 68.2485 25.6628 68.4832C25.4472 68.7178 25.1826 68.9047 24.8866 69.0313C24.5907 69.1578 24.2703 69.2212 23.9471 69.217C22.3331 69.217 20.6556 69.217 18.9908 69.217C15.928 69.118 13.6151 66.4934 13.6151 63.0889C13.6151 59.251 13.6151 55.405 13.6151 51.5506V49.2603L12.662 50.325C12.4377 50.5988 12.1564 50.8232 11.8365 50.9832C11.5167 51.1433 11.1656 51.2354 10.8065 51.2535C10.5196 51.2481 10.2376 51.1809 9.98048 51.0568C9.72341 50.9326 9.49773 50.7546 9.31962 50.5355C8.89382 50.0515 8.676 49.4262 8.71151 48.7898C8.74702 48.1533 9.03312 47.5547 9.51025 47.1186L25.5992 29.5884C25.8068 29.3219 26.0709 29.1021 26.3735 28.944C26.6762 28.7859 27.0102 28.6932 27.353 28.6723C27.7139 28.6981 28.065 28.7987 28.3828 28.9674C28.7006 29.136 28.9777 29.3689 29.1957 29.6503L44.8653 46.7596C45.0178 46.9205 45.183 47.0938 45.3355 47.2795C45.75 47.7329 45.979 48.3189 45.979 48.9261C45.979 49.5332 45.75 50.1192 45.3355 50.5726C45.1521 50.7841 44.9248 50.9552 44.6685 51.0747C44.4121 51.1943 44.1327 51.2594 43.8486 51.2659C43.5288 51.256 43.2146 51.1816 42.9259 51.0473C42.6371 50.9131 42.3801 50.7219 42.1711 50.4859C41.7898 50.0898 41.4086 49.6936 41.04 49.2479V63.1384C41.0669 63.9863 40.9187 64.8307 40.6044 65.6218C40.29 66.4129 39.8159 67.1345 39.21 67.7438C38.1783 68.7165 36.7951 69.2546 35.3593 69.2418ZM32.4237 68.1894H35.2704C35.8627 68.2074 36.4525 68.1068 37.0034 67.8938C37.5542 67.6809 38.0544 67.3601 38.4729 66.9514C38.971 66.4447 39.3612 65.8468 39.6207 65.1923C39.8803 64.5378 40.0042 63.8398 39.9852 63.1384V47.6262H40.5063C40.6039 47.6124 40.7035 47.6196 40.7979 47.6474C40.8923 47.6752 40.9793 47.7229 41.0527 47.7871L41.739 48.5051C42.133 48.9384 42.5269 49.3594 42.9336 49.7431C43.0408 49.8817 43.1788 49.9949 43.3373 50.0742C43.4957 50.1536 43.6705 50.197 43.8486 50.2012C43.9884 50.1939 44.125 50.1581 44.2498 50.0963C44.3745 50.0345 44.4846 49.9479 44.573 49.8422C44.8239 49.5751 44.9631 49.2262 44.9631 48.8642C44.9631 48.5021 44.8239 48.1532 44.573 47.8861L44.1409 47.4033L38.905 41.6961L28.4586 30.3312C28.3368 30.161 28.1802 30.0171 27.9987 29.9085C27.8172 29.7999 27.6147 29.7288 27.4038 29.6998C27.211 29.7241 27.0256 29.7873 26.8593 29.8854C26.693 29.9834 26.5495 30.1142 26.438 30.2693C21.0072 36.1127 15.623 41.9602 10.2855 47.8119C10.1341 47.9346 10.0093 48.0855 9.91831 48.2557C9.82731 48.4259 9.77192 48.612 9.75537 48.8032C9.73882 48.9944 9.76143 49.1869 9.82188 49.3695C9.88234 49.5521 9.97944 49.7212 10.1076 49.8669C10.1944 49.9724 10.3022 50.0596 10.4245 50.1235C10.5468 50.1873 10.681 50.2264 10.8192 50.2384C11.2572 50.1806 11.6566 49.964 11.9376 49.6317C12.3315 49.2108 12.7128 48.7775 13.1322 48.2947L14.6191 46.611L14.6572 48.2823C14.6572 48.5175 14.6572 48.6785 14.6572 48.8394V51.5011C14.6572 55.3513 14.6572 59.2015 14.6572 63.0393C14.6572 65.8744 16.5253 68.0656 19.0162 68.1399C20.6429 68.1399 22.3077 68.1399 23.9217 68.1399C24.9384 68.1399 25.1925 67.3476 25.1925 66.6915C25.1925 65.4534 25.1925 64.1412 25.1925 62.8784V57.4312H29.5007V66.0972C29.4204 66.6863 29.5602 67.2839 29.8947 67.7809C30.3015 68.0375 30.7843 68.155 31.2672 68.1152L32.4237 68.1894ZM35.5118 65.6144H35.156C34.5426 65.5706 33.9267 65.5706 33.3133 65.6144H32.3983H31.9408L31.8518 65.0078C31.8393 64.8512 31.8393 64.6939 31.8518 64.5373V63.2993C31.8518 61.1328 31.8518 58.9663 31.8518 56.7998C31.9277 56.2383 31.7873 55.6693 31.4578 55.2028C31.0973 54.9292 30.6409 54.8047 30.187 54.8561H28.7255C27.2767 54.8561 25.8153 54.8561 24.3538 54.8561C23.5023 54.8561 22.9431 55.1285 22.9304 56.4531C22.9304 58.2111 22.9304 59.9815 22.9304 61.7394V65.5896H21.2529C20.376 65.5896 19.5245 65.5896 18.7112 65.5896C18.1843 65.5014 17.7133 65.2169 17.3978 64.7964C17.0824 64.3759 16.9472 63.8523 17.021 63.3365V48.5547C17.021 47.3167 17.021 46.1405 17.021 44.9273C17.0237 44.48 17.1753 44.0456 17.4531 43.6893L25.3577 35.0232L27.3784 32.8196L27.7724 33.2529C28.5857 34.1319 29.3863 35.0232 30.187 35.9022C32.106 38.0316 34.1012 40.2353 36.1218 42.3027C36.707 42.8867 37.1589 43.5845 37.448 44.3504C37.7371 45.1163 37.8568 45.933 37.7994 46.7472C37.7104 51.8354 37.7231 56.8617 37.7994 62.8413C37.8354 63.2544 37.7803 63.6703 37.6378 64.061C37.4953 64.4518 37.2688 64.8083 36.9733 65.1068C36.5714 65.4529 36.0479 65.6347 35.5118 65.6144ZM34.1647 64.5126C34.5371 64.4879 34.9107 64.4879 35.2831 64.5126C35.449 64.5457 35.6204 64.5429 35.7851 64.5044C35.9498 64.4659 36.1038 64.3926 36.2362 64.2897C36.4134 64.0858 36.5464 63.849 36.6272 63.5937C36.708 63.3384 36.735 63.0698 36.7064 62.8041C36.7064 56.7998 36.6302 51.7487 36.7064 46.71C36.7659 46.0301 36.6727 45.3458 36.4335 44.7045C36.1943 44.0631 35.8148 43.4802 35.3212 42.996C33.2879 40.9162 31.2926 38.7125 29.3609 36.5708L27.3403 34.3547L26.0694 35.6918L18.1647 44.3578C18.0528 44.5501 17.9957 44.7681 17.9995 44.9892C17.9995 46.2272 17.9995 47.4652 17.9995 48.6042V63.3365C17.9995 63.9307 18.3299 64.4878 18.6985 64.5745C19.5245 64.5745 20.3506 64.5745 21.2402 64.5745H21.8629V61.6899C21.8629 59.9196 21.8629 58.1616 21.8629 56.4036C21.8629 54.2495 23.21 53.779 24.3284 53.779H30.1234C30.491 53.7539 30.86 53.8024 31.2075 53.9216C31.5551 54.0409 31.8738 54.2283 32.1441 54.4723C32.4183 54.7931 32.6228 55.1648 32.7451 55.5649C32.8674 55.965 32.9051 56.3851 32.8558 56.7998C32.8558 58.9663 32.8558 61.1328 32.8558 63.2993V64.5373H34.1266L34.1647 64.5126Z" fill="#7D4E57"/>
<path d="M27.3148 45.3358C27.9121 45.3358 28.5094 45.3358 29.094 45.3358C29.5214 45.3979 29.9135 45.6024 30.2036 45.9145C30.4936 46.2266 30.6636 46.627 30.6845 47.0475C30.7055 47.4679 30.5762 47.8825 30.3186 48.2205C30.0611 48.5586 29.6912 48.7991 29.2719 48.9013C28.0022 48.9765 26.729 48.9765 25.4594 48.9013C25.0325 48.81 24.6521 48.5759 24.3841 48.2396C24.1162 47.9034 23.9777 47.4862 23.9928 47.0608C24.0079 46.6354 24.1757 46.2285 24.4668 45.9111C24.758 45.5937 25.1542 45.3858 25.5865 45.3235C26.1583 45.3235 26.7302 45.3235 27.2894 45.3235" fill="#7D4E57"/>
<path d="M27.3276 49.5203C26.7176 49.5203 26.0568 49.5203 25.4467 49.5203C25.151 49.4837 24.8656 49.3905 24.607 49.246C24.3484 49.1016 24.1216 48.9088 23.9397 48.6787C23.7579 48.4486 23.6245 48.1857 23.5472 47.9052C23.47 47.6248 23.4504 47.3322 23.4896 47.0443C23.494 46.4851 23.7129 45.9477 24.1032 45.5376C24.4935 45.1276 25.0272 44.8746 25.5993 44.8282H29.1195C29.679 44.9033 30.1934 45.168 30.5724 45.5758C30.9515 45.9836 31.1709 46.5085 31.1921 47.0582C31.2133 47.608 31.035 48.1474 30.6885 48.5818C30.3421 49.0163 29.8495 49.3178 29.2974 49.4336C28.662 49.5203 28.0139 49.5203 27.3276 49.5203ZM26.2601 45.8063H25.6374C25.342 45.8657 25.0753 46.0191 24.8792 46.2424C24.6831 46.4657 24.5688 46.7461 24.5543 47.0396C24.5397 47.3331 24.6257 47.623 24.7988 47.8636C24.9719 48.1043 25.2222 48.282 25.5103 48.3689C26.7505 48.4373 27.9937 48.4373 29.2339 48.3689C29.8566 48.3689 30.1616 47.6385 30.1362 47.0071C30.1576 46.7062 30.0583 46.409 29.8592 46.1781C29.66 45.9471 29.3766 45.8005 29.0687 45.7691C28.6747 45.7691 28.2807 45.7691 27.8868 45.7691H26.2601V45.8063Z" fill="#7D4E57"/>
</g>
<defs>
<clipPath id="clip0_4_370">
<rect width="80" height="80" fill="white" transform="translate(0.5)"/>
</clipPath>
</defs>
</svg>
