<svg width="65" height="80" viewBox="0 0 65 80" fill="none" xmlns="http://www.w3.org/2000/svg">
<path d="M37.9462 1.1699C21.3862 1.3299 13.7862 1.6499 12.5062 2.3699C11.0662 3.0899 10.3462 3.0899 9.14615 2.3699C6.82615 0.929901 3.94615 1.2499 2.26615 3.0899C0.906149 4.6099 0.82615 6.6099 0.666149 35.6499C0.586149 52.9299 0.90615 67.7299 1.30615 69.2499C2.18615 72.0499 3.94615 73.4099 7.06615 73.4099C8.82615 73.4099 9.06615 73.8099 9.30615 76.8499C9.54615 79.7299 9.78615 80.1299 11.1462 79.9699C13.3062 79.5699 18.9062 79.5699 20.3462 79.8899C21.2262 80.1299 21.6262 79.4099 21.7862 77.0099L22.0262 73.8099L42.2662 74.0499C58.9862 74.2899 62.6662 74.1299 63.3862 73.1699C64.1862 72.2899 64.1062 71.8099 63.1462 71.0099C61.5462 69.6499 61.5462 64.1299 63.1462 63.4899C64.1862 63.0899 64.3462 58.9299 64.3462 32.7699C64.3462 10.2899 64.1062 2.2899 63.3862 1.5699C62.8262 1.0099 62.2662 0.689903 62.0262 0.769905C61.7062 0.929901 50.9062 1.0899 37.9462 1.1699ZM9.14615 32.2099C9.14615 54.3699 8.90615 60.6099 8.18615 60.6099C7.62615 60.6099 6.34615 60.8499 5.38615 61.0899C3.70615 61.5699 3.54615 61.3299 3.54615 57.9699C3.54615 55.7299 4.02615 54.0499 4.74615 53.4099C5.78615 52.5299 5.86615 52.2099 4.90615 51.0899C3.30615 49.2499 3.38615 44.5299 4.98615 43.2499C6.26615 42.2899 6.26615 42.1299 4.98615 41.0899C3.22615 39.7299 3.06615 35.2499 4.74615 33.4099C5.86615 32.2099 5.86615 31.9699 4.74615 31.0099C3.06615 29.6499 3.22615 24.6899 4.98615 23.3299C6.26615 22.2899 6.26615 22.1299 4.98615 21.0899C3.22615 19.7299 3.06615 14.7699 4.74615 13.4099C5.86615 12.4499 5.86615 12.2099 4.74615 11.0099C4.10615 10.2899 3.54615 9.1699 3.54615 8.5299C3.54615 6.6099 5.94615 3.8099 7.62615 3.8099C9.06615 3.8099 9.14615 4.6099 9.14615 32.2099ZM60.7462 32.2099V60.6099H36.5862H12.3462V32.2099V3.8099H36.5862H60.7462V32.2099ZM59.3062 64.7699C59.0662 65.4899 56.9862 65.8099 52.6662 65.8099C47.3062 65.8099 46.3461 66.0499 46.1062 67.1699C45.8661 68.4499 46.5862 68.6099 52.6662 68.6099C58.2662 68.6099 59.5462 68.8499 59.5462 69.8099C59.5462 70.8499 56.9062 71.0099 40.7462 71.0099C25.2262 71.0099 21.9462 70.8499 21.9462 69.8899C21.9462 69.2499 22.5862 68.5299 23.3062 68.2899C24.3462 67.8899 24.4262 67.5699 23.6262 66.7699C23.0662 66.2099 19.8662 65.8099 15.4662 65.7299C9.62615 65.6499 8.10615 65.8899 7.70615 66.8499C7.46615 67.5699 7.70615 68.2899 8.18615 68.4499C9.38615 68.8499 9.46615 71.0099 8.26615 71.0099C4.98615 71.0099 2.82615 67.4899 4.82615 65.3299C6.10615 63.8899 7.86615 63.8099 32.9062 63.8099C53.9462 63.8099 59.6262 64.0499 59.3062 64.7699ZM19.2262 72.4499V76.3699L15.7862 76.2899L12.3462 76.2099V72.3699V68.6099H15.7862H19.2262V72.4499Z" fill="#7D4E57"/>
<path d="M34.1862 15.8099C33.7862 17.2499 33.0662 17.4099 28.3462 17.4099H22.9062L20.0262 25.9699C17.5462 33.3299 17.3062 34.7699 18.1862 36.5299C20.5062 41.4099 26.0262 41.7299 29.4662 37.1699L31.1462 34.9299L28.6662 27.7299L26.1062 20.6099H30.0262H33.9462V32.2099V43.7299L29.3862 43.9699C25.7062 44.1299 24.7462 44.5299 24.5062 45.6499C24.2662 46.9299 25.0662 47.0099 35.7062 46.8499C45.2262 46.6099 47.1462 46.4499 47.1462 45.4099C47.1462 44.5299 45.9462 44.1299 42.1862 43.9699L37.1462 43.7299V32.2099V20.6099H41.2262C44.8262 20.6099 45.2262 20.7699 44.7462 21.9699C42.6662 27.0899 40.7462 34.0499 40.9862 35.5699C41.3062 37.6499 44.7462 40.6099 46.8262 40.6099C49.4662 40.6099 52.1862 38.8499 53.1462 36.5299C53.9462 34.6099 53.7062 33.1699 51.3862 26.0499L48.5862 17.8099L42.9062 17.5699C37.7862 17.3299 37.1462 17.1699 37.1462 15.8099C37.1462 13.7299 34.7462 13.7299 34.1862 15.8099ZM25.1462 27.0899C25.6262 28.8499 26.2662 30.8499 26.5062 31.4899C26.8262 32.3699 26.1862 32.6099 23.9462 32.6099C21.7062 32.6099 21.0662 32.2899 21.3862 31.4899C21.6262 30.8499 22.2662 28.9299 22.8262 27.0899C23.3862 25.2499 23.9462 23.8099 24.0262 23.8099C24.1862 23.8099 24.6662 25.2499 25.1462 27.0899ZM48.9862 28.2899C50.2662 32.7699 50.3462 32.6099 47.0662 32.6099C45.0662 32.6099 44.3462 32.2899 44.6662 31.5699C44.8262 31.0899 45.4662 29.0899 46.0262 27.1699C47.0662 23.3299 47.6262 23.4899 48.9862 28.2899ZM26.5862 35.9699C26.3462 36.5299 25.2262 37.0099 23.9462 37.0099C22.6662 37.0099 21.5462 36.5299 21.3862 35.9699C21.1462 35.3299 21.9462 35.0099 23.9462 35.0099C25.9462 35.0099 26.7462 35.3299 26.5862 35.9699ZM49.9462 36.2899C48.7462 37.6499 45.0662 37.4899 44.5062 35.9699C44.3462 35.3299 45.2262 35.0099 47.5462 35.0099C50.5062 35.0099 50.8262 35.1699 49.9462 36.2899Z" fill="#7D4E57"/>
</svg>
