<svg width="50" height="50" viewBox="0 0 50 50" fill="none" xmlns="http://www.w3.org/2000/svg">
<path d="M13.5677 19.6753L13.4859 19.7234L13.4147 19.786C12.7076 20.4075 11.6706 22.0903 12.5896 24.1773C13.4702 26.1771 15.4133 30.213 18.8109 33.2454C22.1599 36.2345 25.7319 37.836 28.0532 38.3561L28.1611 38.3803H28.2718C28.2678 38.3803 28.2897 38.3804 28.3566 38.3904C28.4217 38.4001 28.4976 38.4141 28.6036 38.4338C28.617 38.4363 28.6307 38.4388 28.6448 38.4414C29.3775 38.5783 30.947 38.8714 32.2562 37.4853C33.2094 36.4761 34.079 35.4216 34.4317 34.9741C34.7746 34.6234 35.8011 33.9921 37.0817 34.4521C39.1879 35.2086 41.6637 36.8995 42.8372 37.7385C43.7546 38.3945 45.8198 39.9667 46.7462 40.6774L46.7466 40.6777C47.0808 40.9338 47.6901 41.7545 47.1995 42.8704C46.8085 43.7596 45.6913 45.333 44.2206 46.6882C42.7255 48.0658 41.0999 49 39.7271 49C39.728 49 39.7275 49 39.7253 48.9998C39.7131 48.9988 39.652 48.9941 39.5227 48.9719C39.3831 48.948 39.1974 48.9096 38.9662 48.8544C38.5046 48.7443 37.8868 48.5729 37.1363 48.333C35.6365 47.8536 33.6292 47.1077 31.3138 46.0494C26.6807 43.9316 20.8419 40.5757 15.37 35.627C11.909 32.497 8.6581 28.1842 6.13468 24.1636C3.59903 20.1235 1.86919 16.4931 1.38399 14.7551L1.36421 14.6842L1.33426 14.617C1.18762 14.2878 1.00381 13.6503 1.00006 12.9285C0.996354 12.2166 1.16651 11.492 1.64159 10.8871C2.90233 9.28184 4.26267 7.67665 7.22995 6.15143C7.55547 5.98411 8.03653 5.84719 8.51035 5.83909C8.98717 5.83095 9.33071 5.95178 9.53858 6.14545C10.6591 7.18934 12.3935 9.02866 13.5708 10.613C14.1718 11.4218 14.8964 12.4468 15.5002 13.3374C15.8021 13.7828 16.0704 14.1895 16.2763 14.5157C16.3794 14.679 16.464 14.8176 16.5281 14.9281C16.5601 14.9833 16.5853 15.0284 16.6042 15.0639C16.6136 15.0815 16.6207 15.0954 16.6259 15.106L16.6318 15.1182L16.6333 15.1214C16.6337 15.1222 16.6338 15.1225 16.6338 15.1225C16.6767 15.2202 16.7937 15.6821 16.7491 16.2661C16.7062 16.8288 16.5248 17.353 16.1463 17.7214C15.2462 18.5973 14.0432 19.3955 13.5677 19.6753ZM26.8065 1.6129C26.8065 1.27441 27.0809 1 27.4194 1C39.338 1 49 10.662 49 22.5806C49 22.9191 48.7256 23.1935 48.3871 23.1935C48.0486 23.1935 47.7742 22.9191 47.7742 22.5806C47.7742 11.339 38.661 2.22581 27.4194 2.22581C27.0809 2.22581 26.8065 1.9514 26.8065 1.6129ZM26.8065 14.5161C26.8065 14.1776 27.0809 13.9032 27.4194 13.9032C32.2118 13.9032 36.0968 17.7882 36.0968 22.5806C36.0968 22.9191 35.8224 23.1935 35.4839 23.1935C35.1454 23.1935 34.871 22.9191 34.871 22.5806C34.871 18.4652 31.5348 15.129 27.4194 15.129C27.0809 15.129 26.8065 14.8546 26.8065 14.5161ZM26.8065 8.06452C26.8065 7.72602 27.0809 7.45161 27.4194 7.45161C35.7749 7.45161 42.5484 14.2251 42.5484 22.5806C42.5484 22.9191 42.274 23.1935 41.9355 23.1935C41.597 23.1935 41.3226 22.9191 41.3226 22.5806C41.3226 14.9021 35.0979 8.67742 27.4194 8.67742C27.0809 8.67742 26.8065 8.40301 26.8065 8.06452Z" stroke="#5b383f" stroke-width="3" stroke-linecap="round"/>
</svg>
